<?xml version="1.0" standalone="no"?>
<!DOCTYPE svg PUBLIC "-//W3C//DTD SVG 20010904//EN"
 "http://www.w3.org/TR/2001/REC-SVG-20010904/DTD/svg10.dtd">
<svg version="1.0" xmlns="http://www.w3.org/2000/svg"
 width="700.000000pt" height="700.000000pt" viewBox="0 0 700.000000 700.000000"
 preserveAspectRatio="xMidYMid meet">
<metadata>
Created by potrace 1.14, written by Peter Selinger 2001-2017
</metadata>
<g transform="translate(0.000000,700.000000) scale(0.100000,-0.100000)"
fill="#000000" stroke="none">
<path d="M2085 5862 c-225 -24 -417 -190 -473 -411 -17 -67 -18 -144 -17
-1318 2 -687 5 -1259 8 -1273 3 -14 8 -50 12 -80 29 -247 149 -555 306 -790
192 -285 440 -503 747 -654 346 -172 714 -233 1087 -181 126 17 182 31 326 78
524 173 950 561 1166 1063 46 109 97 258 109 324 2 14 11 59 19 100 8 41 17
95 21 120 4 25 8 603 9 1285 2 996 -1 1253 -11 1305 -39 191 -177 343 -374
411 l-65 22 -1420 1 c-781 1 -1433 0 -1450 -2z m2878 -332 c58 -27 103 -80
121 -140 11 -37 13 -275 11 -1265 -1 -671 -5 -1242 -9 -1270 -81 -548 -404
-1001 -883 -1238 -223 -111 -467 -170 -698 -169 -249 1 -457 50 -684 158 -320
153 -572 395 -732 704 -91 175 -121 266 -175 540 -3 19 -8 591 -9 1270 -2
1313 -4 1272 44 1339 31 43 94 82 147 89 26 4 671 7 1433 6 l1386 -1 48 -23z"/>
</g>
</svg>
